<?xml version="1.0" encoding="utf-8"?>
<!-- Generator: Adobe Illustrator 20.1.0, SVG Export Plug-In . SVG Version: 6.00 Build 0)  -->
<svg version="1.1" id="Layer_1" xmlns="http://www.w3.org/2000/svg" xmlns:xlink="http://www.w3.org/1999/xlink" x="0px" y="0px"
	 viewBox="0 0 360 400" style="enable-background:new 0 0 360 400;" xml:space="preserve">
<style type="text/css">
	.st0{display:none;}
	.st1{display:inline;}
	.st2{fill:#16A8AD;}
	.st3{fill:#339DA0;}
	.st4{fill:#5CC6CF;}
	.st5{fill:#1C8184;}
	.st6{fill:#25B2B7;}
	.st7{fill:#0D898D;}
	.st8{fill:#15999D;}
	.st9{fill:#38C0C5;}
	.st10{fill:#10A1A6;}
	.st11{fill:#38C0C9;}
	.st12{fill:#CC1030;}
</style>
<g class="st0">
	<path class="st1" d="M13.5,90.8c-0.4,0.5-0.8,1.2-1.1,2c-0.3,0.7-0.5,1.5-0.7,2.6s-0.3,2.3-0.3,3.8c0,0.9,0.1,1.7,0.4,2.4
		c0.3,0.7,0.6,1.4,1,1.9c0.4,0.6,0.9,1,1.4,1.4s1.1,0.7,1.6,1s1.1,0.5,1.6,0.6s1,0.2,1.4,0.2c0.6,0,1.3,0,2-0.1s1.5-0.2,2.2-0.5
		c0.7-0.2,1.4-0.5,2.1-0.9s1.3-0.9,1.8-1.5s0.9-1.3,1.2-2.2s0.5-1.8,0.5-3c0-1.1,0-2.3,0-3.8s-0.1-3-0.1-4.7s-0.1-3.4-0.2-5.2
		c-0.1-1.8-0.1-3.5-0.2-5.2c-0.1-4-0.3-8.2-0.5-12.6l3.9-0.2c0.1,2.4,0.2,4.9,0.3,7.4c0,1.1,0.1,2.2,0.1,3.4
		c0.1,1.2,0.1,2.5,0.1,3.7c0,1.3,0.1,2.6,0.1,3.9s0.1,2.6,0.1,3.8c0.1,0.8,0.2,1.6,0.6,2.2c0.1,0.3,0.3,0.6,0.5,0.8
		c0.2,0.3,0.4,0.5,0.7,0.7s0.6,0.4,1,0.5s0.8,0.2,1.3,0.2c0.3,0,0.5,0.1,0.8,0.2c0.2,0.1,0.5,0.3,0.6,0.4c0.2,0.2,0.3,0.4,0.4,0.6
		c0.1,0.2,0.1,0.5,0.1,0.8c0,0.6-0.2,1-0.6,1.4c-0.4,0.4-0.8,0.5-1.4,0.5c-0.5,0-0.9,0-1.3-0.1c-0.4,0-0.7-0.1-1-0.2
		s-0.6-0.2-0.9-0.3c-0.3-0.1-0.5-0.2-0.8-0.4c0,0.4,0,0.7,0,1s0,0.6,0,0.9c0,1.7-0.2,3.1-0.6,4.4c-0.4,1.2-1,2.3-1.7,3.2
		c-0.7,0.9-1.5,1.6-2.4,2.2s-1.9,1-2.9,1.4c-1,0.3-2,0.6-3.1,0.7c-1,0.1-2,0.2-2.9,0.2s-1.8-0.1-2.7-0.3c-0.9-0.2-1.8-0.5-2.6-0.9
		c-0.8-0.4-1.6-0.9-2.4-1.5c-0.7-0.6-1.4-1.4-1.9-2.2s-1-1.8-1.3-2.9s-0.5-2.3-0.5-3.6c0-1.9,0.1-3.4,0.4-4.7
		c0.3-1.3,0.6-2.4,0.9-3.2c0.4-1,0.8-1.8,1.3-2.5L13.5,90.8z"/>
	<path class="st1" d="M33.3,95.6c0-0.6,0.2-1,0.6-1.4c0.4-0.4,0.8-0.6,1.4-0.6h2.2c0.5,0,1,0,1.5,0s1.1,0,1.7-0.1s1.1-0.1,1.6-0.2
		s1-0.2,1.5-0.4c0.5-0.2,0.9-0.4,1.2-0.7c0.3-0.3,0.6-0.6,0.8-1c0.3-0.6,0.3-1.4,0.2-2.5s-0.4-2.3-0.8-3.7c-0.1-0.4-0.3-0.9-0.5-1.4
		s-0.4-1-0.6-1.4c-0.2-0.5-0.4-1-0.7-1.5l3.6-1.8c0,0,0.1,0.1,0.2,0.4c0.1,0.3,0.3,0.6,0.5,1s0.4,1,0.6,1.5c0.2,0.6,0.4,1.2,0.6,1.9
		c1.2,3.8,1.4,6.8,0.5,9c-0.9,2.1-2.6,3.6-5,4.2C44,97,43.6,97.1,43,97.2c-0.6,0.1-1.1,0.1-1.7,0.1c-0.6,0-1.1,0-1.7,0.1
		s-0.9,0-1.2,0h-2.9h-0.2c-0.5,0-1-0.2-1.4-0.6C33.5,96.6,33.3,96.2,33.3,95.6z M43,104.5l-3.2,3.2l-3.3-3.3l3.2-3.3L43,104.5z
		 M51.2,104.5l-3.2,3.3l-3.3-3.3l3.2-3.2L51.2,104.5z"/>
	<path class="st1" d="M66.2,97.6c-1.5,0-2.7-0.2-3.8-0.5c-1-0.3-1.9-0.9-2.6-1.6c-0.4-0.4-0.8-0.9-1-1.4s-0.4-1-0.5-1.5
		s-0.2-1-0.2-1.4s0-0.8,0-1.1v-0.4c0,0,0-0.3,0-0.7c0-0.5,0-1.1,0-1.9s0-1.7,0-2.8s0-2.2,0-3.3c0-1.1,0-2.3,0-3.6
		c0-1.2-0.1-2.4-0.1-3.6c-0.1-1.2-0.1-2.2-0.2-3.2s-0.2-1.8-0.3-2.4l3.9-0.7c0.1,0.7,0.2,1.5,0.3,2.5s0.2,2.1,0.2,3.2
		s0.1,2.4,0.1,3.6c0,1.3,0,2.5,0,3.7s0,2.3,0,3.4s0,2,0,2.9s0,1.5,0,2.1c0,0.5,0,0.9,0,1V90c0,0.6,0,1.1,0.1,1.6s0.2,0.8,0.5,1.1
		c0.6,0.6,1.7,0.9,3.4,1h0.2c0.3,0,0.5,0.1,0.8,0.2c0.2,0.1,0.5,0.3,0.6,0.4c0.2,0.2,0.3,0.4,0.4,0.6s0.2,0.5,0.2,0.8
		c0,0.6-0.2,1-0.6,1.4C67.2,97.4,66.8,97.6,66.2,97.6z"/>
	<path class="st1" d="M64.2,95.6c0-0.5,0.2-1,0.6-1.4s0.8-0.6,1.4-0.6l0,0c1.1,0,2.1-0.2,2.8-0.6c0.8-0.4,1.4-0.9,2-1.5
		s1.1-1.3,1.5-2.1c0.4-0.8,0.8-1.6,1.3-2.4c0.3-0.7,0.7-1.4,1-2.1s0.7-1.3,1.2-1.8c1.2-1.5,2.7-2.2,4.4-2.2c2,0,3.7,0.8,5,2.4
		c1.1,1.3,1.7,2.9,1.9,4.8c0.1,0.9,0.2,1.8,0.1,2.7c-0.1,0.9-0.3,1.7-0.6,2.5c-0.4,1-0.9,1.8-1.5,2.4s-1.4,1-2.2,1.3
		c-1.5,0.4-3.2,0.2-5.1-0.5c-1.3-0.5-2.6-1.3-4.1-2.3c-0.1,0.1-0.2,0.2-0.2,0.2c-2,2.1-4.5,3.1-7.6,3.1l0,0c-0.5,0-1-0.2-1.4-0.6
		C64.4,96.6,64.2,96.2,64.2,95.6z M76.2,91.1c1.2,0.9,2.3,1.5,3.3,1.9s1.8,0.5,2.5,0.3c0.2-0.1,0.4-0.2,0.7-0.5
		c0.2-0.3,0.4-0.6,0.5-1c0.2-0.4,0.3-0.9,0.3-1.4s0-1.1,0-1.7c0-0.1,0-0.3-0.1-0.5s-0.1-0.5-0.2-0.8s-0.2-0.6-0.4-0.9
		c-0.2-0.3-0.4-0.6-0.6-0.8c-0.2-0.2-0.5-0.5-0.8-0.6c-0.3-0.2-0.7-0.2-1.1-0.2c-0.3,0-0.5,0.1-0.8,0.2c-0.2,0.2-0.5,0.4-0.7,0.7
		c-0.2,0.3-0.5,0.7-0.7,1.2c-0.3,0.5-0.6,1-0.9,1.7L76.2,91.1z"/>
	<path class="st1" d="M99.3,84.6c0.4,1.2,0.7,2.5,1.1,3.7c0.1,0.5,0.3,1.1,0.4,1.6c0.1,0.6,0.3,1.1,0.4,1.7s0.2,1.1,0.3,1.6
		c0.1,0.5,0.2,1,0.2,1.5c0,0.1,0,0.3,0,0.5s0,0.4,0,0.6c0,1.2-0.2,2.3-0.5,3.4s-0.8,2.1-1.4,3.1s-1.3,2-2.2,2.9
		c-0.8,0.9-1.7,1.8-2.7,2.6s-2,1.6-3.1,2.3c-1.1,0.7-2.2,1.3-3.3,1.9l-1.7-3.5c1.4-0.7,2.8-1.5,4.1-2.4c1.3-0.9,2.5-1.9,3.5-3
		s1.9-2.2,2.5-3.4c0.6-1.2,0.9-2.5,0.9-3.8c0-0.1,0-0.2,0-0.3s0-0.3,0-0.5l0,0c0-0.4-0.1-0.9-0.2-1.4s-0.2-1-0.3-1.5
		c-0.1-0.5-0.2-1-0.4-1.5c-0.1-0.5-0.3-1-0.4-1.5c-0.3-1.1-0.7-2.2-1-3.4L99.3,84.6z"/>
	<path class="st1" d="M111.6,66c0.6,5.4,0.9,10.3,1,14.6c0.1,7.1,0,12.8-0.3,17.2l-3.9-0.2c0.4-5.9,0.6-10.9,0.4-14.9
		c-0.3-6.5-0.6-11.8-1.1-16L111.6,66z"/>
</g>
<g>
	<path class="st2" d="M183.4,31.7c26.7,2.8,53.2,14.1,76.9,32.4c3.1,2.4,7.5,0.1,7.4-3.8l-0.6-14c-0.1-1.4-0.8-2.7-1.9-3.5
		c-27.1-19.1-58-30.7-90.2-31.8c-2.5-0.1-4.6,1.9-4.7,4.4l-0.3,6.8l-0.1,2.2c-0.2,3.6,2.7,6.7,6.3,6.9
		C178.9,31.4,181.9,31.6,183.4,31.7z"/>
	<path class="st2" d="M73.7,240.3c0-12.2,2.5-24.3,7.5-36c1.3-3.1-0.9-6.5-4.3-6.4l-11.8,0.3c-1.9,0-3.5,1.2-4.2,3
		c-4.7,12.5-7.2,25.6-7.2,39.1c0,20.5,4.1,40,11.5,57.7c0.7,1.6,2.2,2.7,4,2.8l12.1,0.5c3.4,0.1,5.8-3.4,4.3-6.5
		C77.8,277.9,73.7,259.4,73.7,240.3z"/>
	<path class="st3" d="M292.8,96.2c16.6,20.4,28.3,45.7,35,75.1c0.8,3.4,1.5,6.8,2.1,10.1c0.4,2.2,2.4,3.8,4.6,3.8l10.9-0.2
		c2.8-0.1,4.9-2.6,4.4-5.4c-5-29.1-15.7-61.1-36.2-89c-0.9-1.2-2.3-1.9-3.7-1.9h-13.6C292.5,88.7,290.4,93.2,292.8,96.2L292.8,96.2z
		"/>
	<path class="st2" d="M333.1,238.8c-1.7,22.9-8.1,44.7-18.7,63.8c-2.1,3.8,0.6,8.5,4.9,8.7l9.1,0.4c2.3,0.1,4.4-1.2,5.5-3.2
		c10.6-20.5,17.3-43.7,19.1-68.2c0.9-11.9,0.9-26.7-0.8-43c-0.3-3.1-2.9-5.4-6-5.3l-8.2,0.2c-3.5,0.1-6.1,3.1-5.7,6.5
		C334.2,216.2,333.7,230.4,333.1,238.8z"/>
	<path class="st4" d="M85.7,190.7c1.5,0,2.9-0.8,3.8-2.1c7.6-11.9,17.7-22.8,30.1-32.3c21.7-16.7,34.9-39.7,37.5-62.5
		c0.3-2.7-1.8-5.1-4.5-5.1h-11c-2.3,0-4.2,1.7-4.5,3.9c-2.1,16.4-11.7,34.1-29.6,47.8c-16.2,12.5-29.4,27.4-38.7,43.9
		c-1.7,3.1,0.6,6.8,4.1,6.8L85.7,190.7z"/>
	<path class="st5" d="M311.8,318c-4.2-0.2-8.3,1.6-10.9,4.9c-2.6,3.2-5.3,6.3-8.2,9.3c-1.2,1.2-2.3,2.4-3.5,3.5
		c-1.7,1.6-2.6,3.9-2.5,6.2l0.4,8.6c0.2,5.3,6.5,8,10.6,4.5c9.1-7.8,17.2-16.8,24.3-26.7c3-4.1,0.2-9.9-4.9-10.1L311.8,318z"/>
	<path class="st6" d="M280.1,353.9c-0.2-4.3-5-6.7-8.5-4.3c-6,4-12.2,7.4-18.8,10.2c-15.4,6.7-32.1,10.1-49.4,10.1
		c-14.1,0-27.9-2.2-40.9-6.5c-3.5-1.1-7,1.3-7.2,5l-0.4,9.3c-0.1,2.5,1.5,4.7,3.9,5.5c14.1,4.4,29.1,6.8,44.6,6.8
		c27.7,0,52.9-7.6,74.5-20.7c1.7-1,2.7-2.9,2.7-4.9L280.1,353.9z"/>
	<path class="st7" d="M96,44.8c0.1,0,0.2,0,0.3,0c23.6,0,37.7,14.3,40.6,33.1c0.3,2.2,2.3,3.8,4.5,3.8h11c2.8,0,4.9-2.5,4.5-5.2
		c-0.6-4.2-1.5-8.3-2.9-12.3c-2.6-7.7-6.6-14.5-11.8-20.1c-3.4-3.7-1.5-9.6,3.4-10.6c4.3-0.8,8.5-1.5,12.8-1.9
		c2.3-0.2,4-2.1,4.1-4.3l0.5-11c0.1-2.7-2.2-5-4.9-4.7c-21.6,1.8-43.7,8.5-65.5,21.1C86.9,36,89.3,44.8,96,44.8z"/>
	<path class="st8" d="M148.6,361c0.1-1.8-0.9-3.5-2.5-4.3c-12.6-6.2-24.2-14.5-34.5-24.7c-6.5-6.5-12.3-13.7-17.2-21.2
		c-0.8-1.2-2.2-2-3.6-2.1l-13.1-0.5c-3.6-0.2-5.9,3.7-4.2,6.8c15.6,27.1,39.4,48.8,68.1,61.8c3,1.3,6.3-0.7,6.5-4L148.6,361z"/>
	<path class="st7" d="M276.8,78.6L276.8,78.6c2,2,4.7,3.1,7.5,3.1h15c2.9,0,4.5-3.4,2.6-5.6c-6.4-7.2-13.2-14-20.3-20.2
		c-2.8-2.4-7.1-0.3-7,3.4l0.7,16C275.3,76.5,275.9,77.7,276.8,78.6z"/>
	<path class="st7" d="M156,184.5l0.8-19.2c0.1-3.1-3.7-4.8-5.8-2.5c-4.7,5-9.9,9.7-15.5,14l-6.5,5c-3.3,2.6-1.5,7.9,2.8,7.8
		l19.4-0.4C153.8,189.2,155.9,187.1,156,184.5z"/>
	<path class="st9" d="M284.2,284.8c0.2,5,6.9,6.5,9.2,2.1c7.8-15,12.6-32.1,13.9-50c0.6-7.9,1-21.7-1.1-38.7c-0.4-3.1-3-5.4-6.1-5.3
		l-13.6,0.3c-3.4,0.1-6,2.9-5.9,6.3L284.2,284.8z"/>
	<path class="st2" d="M168.4,219.6c5.4-4.2,10.6-8.6,15.4-13.3c4.1-3.9,1.2-10.8-4.4-10.7l-5.6,0.1c-6.3,0.1-11.4,5.2-11.7,11.5
		l-0.4,10.1c-0.1,3.1,3.4,4.9,5.8,3L168.4,219.6z"/>
	<path class="st2" d="M302.5,177c-4.4-19.5-11.3-36.8-20.6-51.6c-1.3-2-4.5-1-4.3,1.4l2.2,52.8c0.2,3.8,3.3,6.7,7.1,6.7l13.3-0.3
		c2.2,0,3.8-2.1,3.4-4.2C303.1,180.2,302.8,178.6,302.5,177z"/>
	<path class="st10" d="M171.2,188.8l20.2-0.4c5.8-0.1,11.2-3.1,14.3-8c1.1-1.8,2.4-3.7,3.6-5.8c8.6-13.8,29.1-12.6,35.8,2.2
		c0.8,1.8,1.5,3.4,2.1,4.9c1.3,3.2,4.5,5.3,8,5.2c3.3-0.1,7.3-0.2,10.7-0.2c3.7-0.1,6.7-3.2,6.5-7l-2.3-54.5
		c-0.5-11.2-5.2-21.9-13.4-29.6c-0.1-0.1-0.1-0.1-0.2-0.2c-4.5-4.3-10.6-6.8-16.8-6.8H190c-3.8,0-6.9,2.9-7.3,6.6
		c-1.6,16.3-7.3,36.6-16.5,51.4c-1.2,2-1.9,4.2-2,6.6l-1.3,27.4C163,185.2,166.7,188.9,171.2,188.8z"/>
	<path class="st5" d="M267.2,309.1c6,0.3,10.8-4.6,10.6-10.6l-0.4-9.2l-3.7-87.7c-0.2-4.4-3.9-7.9-8.3-7.8l-6.3,0.2
		c-3.2,0.1-5.7,3-5.2,6.2c1.7,17.2,1.2,23,0.6,31.3c-1.2,17-9.2,31.2-19.5,41.8c-8.9,9.2-19,14.9-31.6,14.9
		c-16.5,0-31.2-8.1-40.3-20.6c-1.1-1.6-3.6-0.8-3.7,1.1l-1.1,27.8c-0.2,4.5,3.3,8.3,7.8,8.5l90.9,3.8L267.2,309.1z"/>
	<path class="st7" d="M140.8,310.8h-1c-4.7-0.2-6.9,5.6-3.4,8.7c2.2,1.8,4.4,3.6,6.7,5.2c2.9,2.1,7.1,0.1,7.2-3.5l0,0
		C150.5,315.6,146.3,311,140.8,310.8z"/>
	<path class="st11" d="M157.4,318.3l-0.2,5.8c-0.2,5.5,3.1,10.7,8.2,12.7c11.8,4.6,24.6,7.2,38,7.2c26.9,0,46.9-10,60.6-20.9
		c2.9-2.3,1.4-7-2.4-7.2l-97.1-4.1C160.7,311.6,157.6,314.5,157.4,318.3z"/>
	<path class="st2" d="M153.7,240.9c0-0.2,0-0.4,0-0.6c0-0.4,0-0.7,0.1-1.1l1.5-35.2c0.2-4.2-3.2-7.7-7.4-7.6l-25.4,0.5
		c-4.8,0.1-9.2,2.6-11.7,6.6c-0.8,1.3-1.6,2.7-2.4,4.1c-5.8,10.6-8.8,21.6-8.8,32.7c0,18.9,5.1,36.7,14,52
		c3.9,6.7,10.9,10.8,18.6,11.2L145,304c3.3,0.1,6.1-2.4,6.2-5.7L153.7,240.9z"/>
	<path class="st2" d="M189.3,81.7h45.1c1.8,0,2.5-2.4,1-3.4C224,70.7,212.1,65,200,61.4c-9.2-2.7-18.1,4.8-17,14.3
		c0,0.1,0,0.2,0,0.2C183.4,79.2,186.1,81.7,189.3,81.7z"/>
	<path class="st12" d="M244.8,245.8c-1.1,2-3.8,3.3-5.6,5.1c-0.7,1.3-1.4,2.6-2.1,4l-3.5,2.1c-1.3,1.3-2.5,2.6-3.8,3.9
		c-1.3,1.1-2.5,0.8-3.7,1.2c-3.2,1.3-6.2,3.7-8.8,4.8c-1.3,0.7-2.6,1.5-4,2.2c-12.4,4.6-24.8,6.3-36.8,8.6c-2-1.6-1.2-2.8-0.5-4.7
		c1.6-0.4,5.2-1.6,6.1-2.9c0.5-0.7,0.5-1.2,0.5-2l-2.7-2.2c0.2-1.1,0.2-1.7,1.5-2.6c3.1-0.6,6.2-1,9.1-0.9c1.5,0.1,3.3,1.6,4.8,1.2
		c3-0.8,7.2-4.7,8.9-6.3c3.5-3.3,6.4-4.6,8.5-7.9c1.5-2.4,0.6-6.1,2-8.3c1.5-2.3,2-5.1,1.9-7.9c-0.1-1.9,1.1-2.2,2.2-3.8
		c1.6-2.2,2.1-6.6-0.2-9c-5-4.1-4.7-12.3-4.3-13.8c0.1-1.6-0.5-3-0.6-4.6c-0.1-1.1-1.1-3.6,0.4-5.5c0.4-0.7,0.5-1.3,0.5-2.2
		c-1.1-0.6-1.8-0.5-2.8-2.1c0.1-1.3,0.3-2.7,0.4-4c0.7-1.7,2.7-2.7,2.9-4.5c0.2-1.7-1.3-2.5-0.2-4.1c2.9,0.1,2.1-2.3,5.2-3.5
		c4.9-2,8.2,0.1,12.4,1.6c1.2,0.2,2.3,0.4,3.5,0.5c1.6,1.3,0.1,6.7,3.4,9.9c2.2,2.1,8,0.7,9.5,5.4c0.9,2.9-1.4,6.6-1.3,9.4
		c1,3.3,2,6.5,3,9.8c0,1.7-2.3,4-0.6,6C253.6,223.1,243.5,248.2,244.8,245.8z"/>
</g>
<g>
	<path d="M69.3,73.5v3.3h4.6v0.9h-5.8v-9.1h5.7v0.9h-4.6v3h4v0.9L69.3,73.5L69.3,73.5z"/>
	<path d="M78.6,71.9c-0.2,0-0.4,0-0.6,0c-0.8,0-1.3,0.3-1.6,1v4.8h-1.1V71h1.1v0.9c0.4-0.7,1-1,1.7-1c0.2,0,0.4,0,0.5,0.1V71.9
		L78.6,71.9z"/>
	<path d="M80.8,71.8c0.5-0.6,1.2-0.9,2.1-0.9s1.6,0.4,1.9,1.1c0.5-0.8,1.2-1.1,2.2-1.1c0.7,0,1.3,0.2,1.6,0.6c0.4,0.4,0.6,1,0.6,1.7
		v4.5h-1.1v-4.5c0-0.5-0.1-0.9-0.3-1.1c-0.2-0.2-0.6-0.4-1.2-0.4c-0.4,0-0.8,0.1-1.1,0.4c-0.3,0.3-0.5,0.6-0.5,1.1v4.5h-1.1v-4.4
		c0-1-0.5-1.5-1.5-1.5c-0.8,0-1.3,0.3-1.6,1v5h-1.1V71h1L80.8,71.8z"/>
	<path d="M91.2,68.7c0.1-0.1,0.3-0.2,0.5-0.2s0.4,0.1,0.5,0.2s0.2,0.3,0.2,0.5s-0.1,0.3-0.2,0.4s-0.3,0.2-0.5,0.2s-0.4-0.1-0.5-0.2
		S91,69.3,91,69.2C91,68.9,91.1,68.8,91.2,68.7z M91.1,77.7V71h1.1v6.8h-1.1V77.7z"/>
	<path d="M94.3,77.7v-9.6h1.1v9.6H94.3z"/>
	<path d="M97.9,77c-0.6-0.6-0.9-1.4-0.9-2.4v-0.2c0-0.7,0.1-1.3,0.4-1.8s0.6-0.9,1.1-1.2c0.5-0.3,1-0.4,1.5-0.4c0.9,0,1.6,0.3,2,0.9
		c0.5,0.6,0.7,1.4,0.7,2.5v0.5h-4.6c0,0.7,0.2,1.3,0.6,1.7c0.4,0.4,0.9,0.6,1.5,0.6c0.7,0,1.3-0.3,1.8-0.9l0.2,0.1l0.2,0.1l0.3,0.3
		c-0.6,0.9-1.4,1.3-2.5,1.3C99.2,77.9,98.5,77.6,97.9,77z M98.8,72.3c-0.3,0.3-0.5,0.8-0.6,1.5h3.5c0-0.7-0.2-1.2-0.5-1.5
		s-0.7-0.5-1.2-0.5C99.5,71.7,99.1,71.9,98.8,72.3z"/>
</g>
<g>
	<path d="M14.8,91.8c-0.2,0.4-0.4,0.7-0.5,1.1c-0.2,0.4-0.3,0.7-0.5,1.1c-0.2,0.7-0.5,1.5-0.6,2.3s-0.3,1.8-0.2,2.7
		c0,0.8,0.2,1.5,0.4,2.1c0.3,0.6,0.6,1.2,1,1.7c0.4,0.5,0.9,0.9,1.4,1.3c0.5,0.4,1,0.7,1.5,1c0.5,0.3,1,0.5,1.5,0.6
		c0.5,0.1,1,0.2,1.4,0.3c0.1,0,0.2,0,0.3,0c0.1,0,0.2,0,0.2,0c0.6,0,1.2-0.1,1.9-0.2c0.7-0.1,1.3-0.3,2-0.6c0.7-0.3,1.3-0.6,1.9-1
		s1.2-0.9,1.6-1.5s0.9-1.3,1.1-2s0.4-1.6,0.4-2.6c0-1.1,0-2.3-0.1-3.8c-0.1-1.5-0.1-3-0.2-4.7c-0.1-1.7-0.2-3.4-0.3-5.1
		s-0.2-3.5-0.4-5.2c-0.1-2-0.3-4-0.5-6c-0.2-2-0.3-4.1-0.5-6.3l6.5-1.5c0.1,1.4,0.1,2.8,0.2,4.1c0.1,1.4,0.1,2.8,0.2,4.2
		c0,1.2,0.1,2.5,0.1,3.8c0,1.3,0.1,2.7,0.1,4.1c0,1.4,0.1,2.8,0.1,4.1c0,1.4,0.1,2.7,0.1,4v-0.1c0,0.2,0.1,0.5,0.2,0.8
		c0.1,0.3,0.3,0.6,0.5,0.9c0.2,0.3,0.5,0.6,0.8,0.8c0.4,0.2,0.8,0.3,1.3,0.3c0.4,0,0.9,0.1,1.3,0.3c0.4,0.2,0.7,0.4,1,0.7
		s0.5,0.6,0.7,1c0.2,0.4,0.3,0.8,0.3,1.2c0,0.4-0.1,0.9-0.3,1.3c-0.2,0.4-0.4,0.7-0.7,1s-0.6,0.5-1,0.7C38.9,98.9,38.5,99,38,99
		c-0.6,0-1.1,0-1.5-0.1c-0.4-0.1-0.9-0.1-1.2-0.2c-0.1,1.7-0.3,3.3-0.8,4.6s-1.1,2.5-1.8,3.5c-0.7,1-1.6,1.9-2.6,2.6
		c-1,0.7-2,1.3-3,1.7s-2.1,0.8-3.2,1c-1.1,0.2-2.1,0.3-3.1,0.3c-0.1,0-0.3,0-0.4,0s-0.3,0-0.4,0h0c-0.9-0.1-1.9-0.2-2.8-0.5
		c-1-0.3-1.9-0.6-2.9-1.1c-0.9-0.5-1.8-1-2.7-1.7c-0.8-0.7-1.6-1.5-2.2-2.4c-0.6-0.9-1.1-2-1.5-3.2c-0.4-1.2-0.6-2.6-0.6-4.1
		c0-1.6,0.1-3,0.3-4.2C7.9,94,8.2,93,8.5,92.1c0.3-1,0.7-1.9,1.2-2.7L14.8,91.8z"/>
	<path d="M33.8,95.8c0-0.4,0.1-0.9,0.3-1.3c0.2-0.4,0.4-0.7,0.7-1s0.6-0.5,1-0.7c0.4-0.2,0.8-0.2,1.3-0.2h2.3h1c0.6,0,1.3,0,2-0.1
		c0.7-0.1,1.4-0.1,2.1-0.3c0.7-0.1,1.3-0.3,1.9-0.5c0.6-0.2,1-0.5,1.2-0.8c0.1-0.2,0.2-0.5,0.2-0.9c0-0.6-0.1-1.3-0.4-2.1
		c-0.3-0.8-0.6-1.6-1-2.5c-0.4-0.8-0.8-1.6-1.2-2.4c-0.4-0.8-0.7-1.4-1-1.9l5.8-2.9c0.4,0.7,0.8,1.6,1.2,2.6c0.4,1,0.7,2,1.1,3.1
		c0.3,1.1,0.6,2.1,0.8,3.1c0.2,1,0.3,1.9,0.3,2.6c0,1.4-0.2,2.6-0.7,3.8c-0.6,1.3-1.4,2.3-2.4,3.2c-1,0.8-2.2,1.5-3.6,1.9
		c-0.4,0.1-0.9,0.2-1.5,0.3c-0.6,0.1-1.2,0.1-1.9,0.2C42.6,99,42,99,41.5,99c-0.6,0-1,0-1.3,0h-3H37c-0.4,0-0.9-0.1-1.3-0.2
		c-0.4-0.2-0.7-0.4-1-0.7s-0.5-0.6-0.7-1C33.9,96.7,33.8,96.2,33.8,95.8z M53.5,105.8l-3.9,3.9l-3.9-3.9l-3.8,3.8l-4-3.9l3.9-3.9
		l3.9,3.9l3.8-3.8L53.5,105.8z"/>
	<path d="M67.2,99c-1.7,0-3.1-0.2-4.3-0.6c-1.2-0.4-2.2-1.1-3.1-1.9c-0.5-0.5-1-1.1-1.3-1.7c-0.3-0.6-0.5-1.2-0.6-1.8
		c-0.1-0.6-0.2-1.1-0.2-1.6c0-0.5,0-1,0-1.3v-0.3c0-0.5,0-1.2,0.1-2.2c0-0.9,0-2.1,0-3.3c0-1.3,0-2.7,0-4.2c0-1.5-0.1-3.1-0.1-4.6
		c-0.1-1.5-0.2-3-0.3-4.4s-0.3-2.7-0.5-3.7l6.1-1.9c0.2,0.9,0.3,2,0.4,3.2c0.1,1.2,0.2,2.5,0.3,3.8c0.1,1.3,0.1,2.7,0.2,4
		c0,1.3,0.1,2.6,0.1,3.8c0,1,0,2-0.1,3c-0.1,1-0.2,1.9-0.2,2.9c-0.1,0.9-0.1,1.8,0,2.7c0.1,0.9,0.2,1.7,0.6,2.6
		c0.1,0.3,0.3,0.6,0.5,0.7c0.2,0.2,0.4,0.3,0.6,0.4c0.2,0.1,0.5,0.1,0.8,0.1c0.3,0,0.6,0,1,0h0.2c0.4,0,0.9,0.1,1.2,0.3
		c0.4,0.2,0.7,0.4,1,0.7c0.3,0.3,0.5,0.6,0.7,1c0.2,0.4,0.3,0.8,0.3,1.2c0,0.4-0.1,0.9-0.3,1.3c-0.2,0.4-0.4,0.7-0.7,1
		c-0.3,0.3-0.6,0.5-1,0.7C68,98.9,67.6,99,67.2,99z"/>
	<path d="M63.9,95.8c0-0.4,0.1-0.9,0.2-1.2c0.2-0.4,0.4-0.7,0.7-1s0.6-0.5,1-0.7c0.4-0.2,0.8-0.3,1.3-0.3c0.9,0,1.7-0.2,2.4-0.5
		c0.7-0.4,1.3-0.8,1.8-1.4c0.5-0.6,1-1.2,1.4-1.9c0.4-0.7,0.8-1.4,1.2-2.1v0c0.4-0.7,0.7-1.5,1.1-2.2c0.4-0.7,0.8-1.4,1.3-2
		c0.7-0.9,1.6-1.5,2.5-2c0.9-0.5,1.9-0.7,2.9-0.7c1.2,0,2.3,0.3,3.3,0.8c1,0.5,1.9,1.2,2.7,2.2c0.6,0.7,1.1,1.6,1.5,2.5
		c0.4,0.9,0.6,2,0.8,3v0c0.1,0.5,0.1,1.1,0.1,1.8c0,0.7-0.1,1.5-0.2,2.2c-0.1,0.7-0.3,1.4-0.5,2c-0.4,1.1-1.1,2.1-1.9,2.9
		c-0.8,0.8-1.7,1.3-2.7,1.6c-0.3,0.1-0.7,0.2-1,0.2s-0.7,0.1-1,0.1c-0.6,0-1.3-0.1-2-0.2c-0.7-0.2-1.4-0.4-2-0.6
		c-0.3-0.1-0.6-0.3-0.9-0.4c-0.3-0.2-0.7-0.4-1.1-0.6c-0.4-0.2-0.7-0.4-1.1-0.6c-0.4-0.2-0.7-0.4-1-0.6c-0.5,0.5-1.1,1-1.6,1.4
		c-0.5,0.4-1.1,0.8-1.7,1s-1.2,0.5-1.9,0.7c-0.7,0.2-1.4,0.2-2.2,0.2c-0.4,0-0.9-0.1-1.3-0.3c-0.4-0.2-0.7-0.4-1-0.7
		c-0.3-0.3-0.5-0.6-0.7-1C64,96.7,63.9,96.2,63.9,95.8z M78.4,90.4c0.4,0.3,0.9,0.5,1.5,0.8c0.6,0.3,1.2,0.5,1.7,0.7
		c0.6,0.2,1.1,0.4,1.6,0.5c0.5,0.1,0.8,0.2,1.1,0.2c0.1,0,0.1,0,0.2,0c0.1,0,0.1,0,0.2,0c0.2,0,0.3-0.2,0.5-0.6
		c0.2-0.4,0.2-0.9,0.2-1.5c0-0.4-0.1-0.9-0.4-1.4c-0.2-0.5-0.6-1-1-1.5c-0.4-0.5-0.8-0.8-1.4-1.1c-0.5-0.3-1-0.5-1.6-0.5
		c-0.2,0-0.4,0.3-0.7,0.8s-0.7,1.4-1.3,2.4v0L78.4,90.4z"/>
	<path d="M101.9,84c0.5,1.5,1,2.9,1.3,4.3c0.2,0.6,0.3,1.3,0.5,1.9s0.3,1.3,0.4,2c0.1,0.7,0.2,1.3,0.3,1.9c0.1,0.6,0.1,1.2,0.1,1.8
		c0,1.3-0.2,2.5-0.5,3.8c-0.3,1.2-0.8,2.4-1.5,3.5c-0.6,1.1-1.4,2.2-2.3,3.3c-0.9,1.1-1.8,2-2.9,3s-2.2,1.8-3.4,2.6
		c-1.2,0.8-2.5,1.5-3.8,2.2l-3.7-5.2c1-0.5,2-1,3-1.7c1-0.6,2-1.3,2.9-2c0.9-0.7,1.8-1.5,2.6-2.2c0.8-0.8,1.5-1.6,2.1-2.4
		c0.6-0.8,1.1-1.6,1.4-2.4S99,96.8,99,96c0-0.6-0.1-1.2-0.2-1.9s-0.4-1.4-0.6-2.2c-0.3-0.8-0.6-1.6-1-2.5c-0.4-0.9-0.8-1.8-1.2-2.8
		L101.9,84z"/>
	<path d="M107.6,99.1c0.1-1.1,0.1-2.3,0.2-3.5s0.1-2.4,0.2-3.6s0.1-2.3,0.1-3.4c0-1.1,0-2.1,0-3c-0.1-1.9-0.2-3.6-0.2-5.1
		c-0.1-1.5-0.1-2.8-0.2-3.9c-0.1-1.1-0.2-2.1-0.2-3s-0.2-1.6-0.2-2.3c-0.1-0.7-0.2-1.4-0.3-2c-0.1-0.6-0.2-1.3-0.3-1.9l6.3-2.1
		c0.3,1.8,0.5,3.7,0.7,5.5c0.2,1.9,0.3,3.6,0.4,5.3c0.1,1.7,0.2,3.3,0.2,4.7c0,1.5,0.1,2.7,0.1,3.7c0,0.9,0,2,0,3c0,1.1,0,2.2,0,3.4
		s-0.1,2.4-0.1,3.6s-0.1,2.4-0.2,3.5L107.6,99.1z"/>
</g>
</svg>
